<svg width="250" height="250" viewBox="0 0 250 250" fill="none" xmlns="http://www.w3.org/2000/svg">
<rect width="250" height="250" rx="125" fill="white"/>
<path d="M87.5004 52.0587C85.2945 53.6764 84.5592 56.6176 83.9709 67.353C83.3827 74.706 82.5003 81.1766 81.9121 81.9119C81.1768 82.5002 74.7061 83.3825 67.3531 83.9708C50.7353 84.8531 50 85.7355 50 102.206C50 117.942 51.1765 119.118 67.059 119.118C83.5297 119.118 84.4121 118.236 84.8533 102.206C85.1474 95.1473 86.0298 88.3826 86.9121 87.3532C88.0886 85.8826 92.0592 85.2943 99.5593 85.2943C110.001 85.2943 115.736 83.8237 117.942 80.2943C118.53 79.4119 119.118 73.3824 119.118 66.7647C119.118 51.1763 117.942 49.9999 102.059 49.9999C94.4122 49.9999 89.2651 50.7352 87.5004 52.0587Z" fill="black"/>
<path d="M133.381 52.6469C131.469 54.7058 130.881 58.2352 130.881 67.0588C130.881 73.3824 131.469 79.4119 132.057 80.2943C134.263 83.8237 139.999 85.2943 150.44 85.2943C157.94 85.2943 161.911 85.8826 163.087 87.3532C163.969 88.3826 164.852 95.1473 165.146 102.206C165.587 118.236 166.469 119.118 183.087 119.118C198.823 119.118 199.999 117.942 199.999 102.059C199.999 85.7355 199.264 84.8531 182.646 83.9708C175.293 83.3825 168.822 82.5002 168.087 81.9119C167.499 81.1766 166.616 74.706 166.028 67.353C165.146 50.7352 164.264 49.9999 147.793 49.9999C137.94 49.9999 135.293 50.441 133.381 52.6469Z" fill="black"/>
<path d="M52.5 133.531C50.5882 135.59 50 139.119 50 147.943C50 164.266 50.7353 165.149 67.3531 166.031C74.7061 166.619 81.1768 167.502 81.9121 168.09C82.5003 168.825 83.3827 175.296 83.9709 182.649C84.8533 199.267 85.7356 200.002 102.206 200.002C117.942 200.002 119.118 198.825 119.118 182.943C119.118 176.619 118.53 170.59 117.942 169.708C115.736 166.178 110.001 164.707 99.5593 164.707C92.0592 164.707 88.0886 164.119 86.9121 162.649C86.0298 161.619 85.1474 154.854 84.8533 147.796C84.4121 131.766 83.5297 130.884 66.9119 130.884C57.0589 130.884 54.4118 131.325 52.5 133.531Z" fill="black"/>
<path d="M168.234 132.942C165.881 134.707 165.44 137.06 165.146 147.796C164.852 154.854 163.969 161.619 163.087 162.649C161.911 164.119 157.94 164.707 150.44 164.707C139.999 164.707 134.263 166.178 132.057 169.708C131.469 170.59 130.881 176.619 130.881 183.237C130.881 198.825 132.057 200.002 147.94 200.002C164.264 200.002 165.146 199.267 166.028 182.649C166.616 175.296 167.499 168.825 168.087 168.09C168.822 167.502 175.293 166.619 182.646 166.031C199.264 165.149 199.999 164.266 199.999 147.796C199.999 132.06 198.823 130.884 182.94 130.884C175.146 130.884 170.146 131.619 168.234 132.942Z" fill="black"/>
</svg>
